<svg xmlns="http://www.w3.org/2000/svg" xmlns:xlink="http://www.w3.org/1999/xlink" width="1920" height="1080" viewBox="0 0 1920 1080">
  <defs>
    <clipPath id="clip-path">
      <rect id="Rectangle_18" data-name="Rectangle 18" width="1920" height="1080" fill="#fff"/>
    </clipPath>
    <clipPath id="clip-path-2">
      <rect id="Rectangle_47" data-name="Rectangle 47" width="662" height="816.336" fill="none"/>
    </clipPath>
    <clipPath id="clip-path-3">
      <rect id="Rectangle_27" data-name="Rectangle 27" width="262.716" height="254.269" fill="none"/>
    </clipPath>
    <clipPath id="clip-path-4">
      <rect id="Rectangle_28" data-name="Rectangle 28" width="145.313" height="227.96" fill="none"/>
    </clipPath>
    <clipPath id="clip-path-5">
      <rect id="Rectangle_29" data-name="Rectangle 29" width="20.653" height="20.727" fill="none"/>
    </clipPath>
    <clipPath id="clip-path-6">
      <rect id="Rectangle_30" data-name="Rectangle 30" width="167.082" height="220.015" fill="none"/>
    </clipPath>
    <clipPath id="clip-path-7">
      <rect id="Rectangle_31" data-name="Rectangle 31" width="75.54" height="90.89" fill="none"/>
    </clipPath>
    <clipPath id="clip-path-8">
      <path id="Path_89" data-name="Path 89" d="M85.7,27.4Z" transform="translate(-85.7 -27.4)" fill="none"/>
    </clipPath>
    <clipPath id="clip-path-9">
      <rect id="Rectangle_32" data-name="Rectangle 32" width="97.495" height="180.31" fill="none"/>
    </clipPath>
    <clipPath id="clip-path-10">
      <rect id="Rectangle_33" data-name="Rectangle 33" width="54.515" height="38.626" fill="none"/>
    </clipPath>
    <clipPath id="clip-path-11">
      <rect id="Rectangle_34" data-name="Rectangle 34" width="4.651" height="4.503" fill="none"/>
    </clipPath>
    <clipPath id="clip-path-12">
      <rect id="Rectangle_35" data-name="Rectangle 35" width="25.304" height="56.395" fill="none"/>
    </clipPath>
    <clipPath id="clip-path-13">
      <rect id="Rectangle_36" data-name="Rectangle 36" width="17.117" height="46.515" fill="none"/>
    </clipPath>
    <clipPath id="clip-path-14">
      <rect id="Rectangle_37" data-name="Rectangle 37" width="4.838" height="4.931" fill="none"/>
    </clipPath>
    <clipPath id="clip-path-15">
      <rect id="Rectangle_38" data-name="Rectangle 38" width="27.909" height="52.897" fill="none"/>
    </clipPath>
    <clipPath id="clip-path-16">
      <rect id="Rectangle_39" data-name="Rectangle 39" width="11.536" height="5.6" fill="none"/>
    </clipPath>
    <clipPath id="clip-path-17">
      <rect id="Rectangle_40" data-name="Rectangle 40" width="12.094" height="12.112" fill="none"/>
    </clipPath>
    <clipPath id="clip-path-18">
      <rect id="Rectangle_41" data-name="Rectangle 41" width="7.07" height="7.033" fill="none"/>
    </clipPath>
    <clipPath id="clip-path-19">
      <rect id="Rectangle_43" data-name="Rectangle 43" width="13.954" height="51.334" fill="none"/>
    </clipPath>
    <clipPath id="clip-path-20">
      <rect id="Rectangle_44" data-name="Rectangle 44" width="10.047" height="9.991" fill="none"/>
    </clipPath>
    <clipPath id="clip-path-21">
      <rect id="Rectangle_45" data-name="Rectangle 45" width="5.768" height="5.805" fill="none"/>
    </clipPath>
    <clipPath id="clip-path-22">
      <rect id="Rectangle_46" data-name="Rectangle 46" width="2.233" height="2.14" fill="none"/>
    </clipPath>
    <clipPath id="clip-Test_Portal_Login_8">
      <rect width="1920" height="1080"/>
    </clipPath>
  </defs>
  <g id="Test_Portal_Login_8" data-name="Test Portal Login – 8" clip-path="url(#clip-Test_Portal_Login_8)">
    <rect width="1920" height="1080" fill="#e7f2ff"/>
    <path id="Path_352" data-name="Path 352" d="M4517.424-120s-202.052,240.17-234.358,421.709,10.087,273.7,59.132,352.422,156.185,164.27,305.543,232.926,376.6,71.976,376.6,71.976l395.991,11.8V-120Z" transform="translate(-3500 120)" fill="#fff"/>
    <g id="Mask_Group_1" data-name="Mask Group 1" clip-path="url(#clip-path)">
      <g id="Artwork_1" data-name="Artwork 1" transform="translate(1291 540)">
        <g id="Group_114" data-name="Group 114" transform="translate(-225 -408.168)" clip-path="url(#clip-path-2)">
          <g id="Group_113" data-name="Group 113" transform="translate(-0.063 -0.248)">
            <path id="Path_52" data-name="Path 52" d="M251.4,70.068H373.827s-10.791-19.722-42.236-16.745-31.63-9.675-46.887-11.164-28.1,10.233-33.119,28.095" transform="translate(216.417 36.42)" fill="#e0e0e0"/>
            <path id="Path_53" data-name="Path 53" d="M81.4,231.627s-12.28,6.7,5.582,32.188,29.4,37.956,29.4,37.956,3.349,6.14-1.861,7.815-17.3,1.488-18.792,8.373S100.01,330.8,110.8,335.076s34.235,14.513,36.282,15.443,4.465,3.535.93,5.4-29.583,8.187-25.862,20.467,35.909,19.164,39.445,20.094,4.465,2.047,4.465,3.907-9.117,3.163-16.373,5.4-15.629,5.954-12.838,12.838,23.071,19.35,67.54,17.676l20.653-2.233,8.745-18.792c16.373-41.491,11.164-64.749,5.582-69.586S227.461,347.356,223,353.5s-8.745,14.327-10.419,13.768-2.6-2.047-2.233-5.582,4.465-36.282-5.954-43.91-25.118,15.071-27.909,17.676-4.652-.558-4.838-2.791-2.047-27.723-2.6-39.445-3.907-18.978-11.35-19.908S146.9,283.91,143.548,288.375s-8-.744-8-.744-7.815-15.071-26.048-40.189-28.281-15.629-28.281-15.629" transform="translate(66.576 198.233)" fill="#ebebeb"/>
            <path id="Path_54" data-name="Path 54" d="M217.87,427.313c-13.4-18.606-36.654-52.1-56.562-80.75l-51.725-73.121L93.768,251.3l-4.279-5.954-1.116-1.489L88,243.3l.372.558,1.116,1.489,4.465,5.954,16,21.955c13.4,18.606,31.63,44.468,51.725,73.121s43.352,61.958,56.562,80.75" transform="translate(75.795 209.631)" fill="#e0e0e0"/>
            <path id="Path_55" data-name="Path 55" d="M96.3,277.8h1.488l3.907.744,13.024,3.163,13.024,3.535,3.907,1.116,1.488.372h-1.488l-3.907-.744-13.024-3.349L101.7,279.289l-3.907-.93-1.488-.372" transform="translate(82.938 239.321)" fill="#e0e0e0"/>
            <path id="Path_56" data-name="Path 56" d="M116.806,301.78c-.186,0,1.675-9.675,4.279-21.583s4.652-21.4,4.838-21.4-1.675,9.675-4.279,21.583-4.651,21.4-4.838,21.4" transform="translate(100.575 222.97)" fill="#e0e0e0"/>
            <path id="Path_57" data-name="Path 57" d="M132.3,322.393l.744-1.3,2.047-3.721c1.675-3.163,3.907-7.442,6.326-12.28s4.279-9.3,5.768-12.466l1.675-3.721.744-1.3-.372,1.488L147.743,293c-1.3,3.349-3.163,7.815-5.582,12.652s-4.652,9.117-6.512,12.094l-2.233,3.535-.93,1.3" transform="translate(113.92 247.755)" fill="#e0e0e0"/>
            <path id="Path_58" data-name="Path 58" d="M113,307.13h5.21l12.652-.558,12.652-.372h0l-12.652.558-12.652.372H113" transform="translate(97.31 263.762)" fill="#e0e0e0"/>
            <path id="Path_59" data-name="Path 59" d="M123.9,330.674h1.861l4.838-.372,16.187-.744L162.973,329H168l-4.838.372-16.187.744-16.187.558h-6.7" transform="translate(106.691 283.384)" fill="#e0e0e0"/>
            <path id="Path_60" data-name="Path 60" d="M148,349.54l.744-1.861,2.419-4.651c2.047-3.907,4.652-9.489,7.442-15.815s5.21-11.908,6.884-16l2.047-4.838.744-1.675-.558,1.861-1.861,5.024c-1.675,4.093-3.907,9.861-6.7,16s-5.582,11.722-7.628,15.629l-2.6,4.651L148,349.54" transform="translate(127.431 262.471)" fill="#e0e0e0"/>
            <path id="Path_61" data-name="Path 61" d="M249.141,255.784c-22.141-24.746-20.094-60.655-11.722-91.355,1.488-5.21,2.047-10.791,5.582-14.7s10.047-5.768,14.14-2.419,4.093,7.628,5.21,11.722a31.072,31.072,0,0,0,9.3,14.513c2.977,2.419,6.7,4.465,10.419,3.535s7.07-7.442,8.187-12.652l6.7-28.839a49.307,49.307,0,0,1,5.21-14.885c2.791-4.465,7.442-8.187,12.652-8.373s10.605,4.093,10.419,9.3a48.564,48.564,0,0,1-1.3,6.512,5.582,5.582,0,0,0,2.047,5.768c1.861,1.116,4.279.186,6.14-.93,6.512-3.907,11.722-9.675,16.559-15.629s9.861-11.908,16-16.373,13.954-7.442,21.4-6.14,14.141,7.814,14.327,15.443-5.768,13.954-11.722,18.792a117.774,117.774,0,0,1-29.211,17.117,9.675,9.675,0,0,0-5.024,3.349c-1.861,3.163.558,7.256,3.721,9.3s7.815,2.791,11.722,4.279,7.815,4.279,8.373,8.373-4.838,10.233-10.047,12.838A101.029,101.029,0,0,1,335.1,194.2c-4.093.558-8.373.744-12.094,2.6s-6.7,6.14-5.582,10.233,5.4,6.326,9.489,6.512,8.187-1.116,12.28-1.675c7.628-.93,16.745,1.675,19.722,8.745a16.746,16.746,0,0,1-1.675,14.7,38.515,38.515,0,0,1-10.791,10.791,101.589,101.589,0,0,1-49.12,19.722c-17.676,1.861-33.3-.186-48.189-10.047" transform="translate(199.326 81.604)" fill="#f5f5f5"/>
            <path id="Path_62" data-name="Path 62" d="M243.4,255.692c4.093-11.908-.186-5.954,8.187-20.467a472.2,472.2,0,0,1,29.956-45.213l8.559-11.536c2.791-3.721,5.582-7.442,8.559-10.977a235.362,235.362,0,0,1,18.048-18.978c5.954-5.768,11.908-10.977,17.49-15.815s10.791-9.3,15.815-13.21a187.731,187.731,0,0,1,24.932-16.373L382.2,99.4l1.861-.93.744-.372-.558.372-1.861.93-7.07,3.907a198.527,198.527,0,0,0-24.56,16.559c-5.024,3.907-10.233,8.373-15.815,13.21s-11.35,10.233-17.49,16a238.9,238.9,0,0,0-17.862,18.978c-2.977,3.535-5.582,7.07-8.373,10.978l-8.559,11.536A484.861,484.861,0,0,0,252.331,235.6c-8.373,14.513-4.093,8.373-8.187,20.281" transform="translate(209.532 84.672)" fill="#e0e0e0"/>
            <path id="Path_63" data-name="Path 63" d="M273.286,162.523a10.79,10.79,0,0,1,0-2.233,51.24,51.24,0,0,1,.558-6.326c.372-2.791,1.488-12.652,2.419-20.653s1.861-15.257,2.233-20.653.372-4.838.372-6.326a10.6,10.6,0,0,1,.186-2.233,10.425,10.425,0,0,1,.186,2.233c0,1.488,0,3.721-.186,6.326s-.93,12.652-2.047,20.653l-2.791,20.467-.744,6.14a10.607,10.607,0,0,1-.372,2.233" transform="translate(235.092 89.836)" fill="#e0e0e0"/>
            <path id="Path_64" data-name="Path 64" d="M342.142,139.395l-2.791-.372-7.256-.93c-6.14-.744-14.885-1.488-24.374-2.047s-18.234-.372-24.374-.186H273.3l2.791-.372,7.442-.558c6.326-.372,14.885-.372,24.56,0a239.286,239.286,0,0,1,24.374,2.233l7.256,1.3,2.6.744" transform="translate(235.264 116.127)" fill="#e0e0e0"/>
            <path id="Path_65" data-name="Path 65" d="M254.438,213.9v-.93l-.558-2.6c-.558-2.233-1.116-5.582-1.861-9.861-1.3-8.373-2.977-19.908-4.465-32.56s-2.977-24.374-4.279-32.747l-1.488-9.861-.372-2.6a3.54,3.54,0,0,1,0-.93v.93l.558,2.6c.558,2.233,1.116,5.582,1.861,9.861,1.488,8.373,2.977,19.908,4.465,32.747s2.977,24.374,4.279,32.746l1.488,9.861.372,2.6a3.533,3.533,0,0,1,0,.93" transform="translate(207.797 105.068)" fill="#e0e0e0"/>
            <path id="Path_66" data-name="Path 66" d="M341.1,167.2h-3.721l-10.047.744-33.3,2.977-33.491,2.791-10.233.558h0l10.047-.744,33.3-2.977,33.491-2.791,10.233-.558H341.1" transform="translate(215.47 144.14)" fill="#e0e0e0"/>
            <path id="Path_67" data-name="Path 67" d="M387.984,269.6l-.372.93-.93,2.419-3.907,9.3-14.327,33.119h-.372l-45.026,7.442-15.071,2.419h-.744v-.744l9.861-39.259v.372L290.675,273.7l-7.256-3.349-1.861-.93-.558-.372h.744l1.861.744,7.442,3.163,26.606,11.536h.372v.372l-9.675,39.259-.558-.558,15.071-2.419,45.026-7.256h-.372l14.7-33.119,4.093-9.3,1.116-2.419.372-.744" transform="translate(241.89 231.146)" fill="#e0e0e0"/>
            <path id="Path_68" data-name="Path 68" d="M302.431,296.716l-1.116,3.349,1.861,2.791-3.349-.186-2.233,2.791-.93-3.349L293.5,301l2.791-1.861.186-3.535,2.6,2.233Z" transform="translate(252.648 254.64)" fill="#e0e0e0"/>
            <path id="Path_69" data-name="Path 69" d="M283.765,268.258l-.558,1.675.93,1.3h-1.674l-1.116,1.3-.558-1.674L279.3,270.3l1.489-.93V267.7l1.3,1.116Z" transform="translate(240.427 230.629)" fill="#e0e0e0"/>
            <path id="Path_70" data-name="Path 70" d="M330.852,292.944l-.744,1.488,1.116,1.489-1.861-.186-.93,1.488-.558-1.675-1.675-.558,1.488-.93V292.2l1.488,1.116Z" transform="translate(280.789 251.714)" fill="#e0e0e0"/>
            <path id="Path_71" data-name="Path 71" d="M303.565,277.344l-.558,1.488.93,1.489-1.675-.186-.93,1.488-.558-1.675-1.675-.558,1.488-.93V276.6l1.488,1.116Z" transform="translate(257.467 238.289)" fill="#e0e0e0"/>
            <path id="Path_72" data-name="Path 72" d="M341.765,268.358l-.744,1.675,1.116,1.488-1.861-.186-.93,1.488-.558-1.675L337.3,270.4l1.3-.93V267.8l1.488,1.116Z" transform="translate(290.342 230.715)" fill="#e0e0e0"/>
            <path id="Path_73" data-name="Path 73" d="M36.686,351.282H134s-8.559-15.629-33.677-13.4-25.118-7.628-37.4-8.931-22.327,8.187-26.42,22.327" transform="translate(31.475 283.243)" fill="#e0e0e0"/>
            <path id="Path_74" data-name="Path 74" d="M47.086,145.182H144.4s-8.559-15.629-33.677-13.4-25.118-7.628-37.4-8.931-22.327,8.187-26.42,22.327" transform="translate(40.425 105.874)" fill="#f5f5f5"/>
            <path id="Path_75" data-name="Path 75" d="M312.8,179.669h80.006s-7.07-12.838-27.723-10.977-20.653-6.326-30.7-7.256-18.42,6.7-21.583,18.42" transform="translate(269.257 139.113)" fill="#f5f5f5"/>
            <path id="Path_76" data-name="Path 76" d="M334.07,364.946c3.907-29.956-17.117-54.7-43.538-69.586s-56.748-19.908-85.773-28.1-54.7-19.164-74.982-39.259-32.56-50.05-25.3-77.773c1.861-6.884,5.024-13.954,10.978-17.862s15.071-3.907,19.536,1.674c9.489,11.908-8.931,33.491,2.6,43.352,2.6,2.233,6.326,3.163,8.931,5.4,7.256,5.768,5.024,17.117,5.954,26.42,2.047,18.234,19.164,31.072,36.1,38.514,22.513,9.861,47.073,14.7,71.075,20.467s48.189,13.4,68.1,27.909,37.4,37.212,37.212,61.958c0,6.884-.93,15.443-5.21,20.839s-9.861,6.512-16,3.535-10.605-7.442-9.489-17.49" transform="translate(88.162 111.8)" fill="#e8505b"/>
            <g id="Group_72" data-name="Group 72" transform="translate(190.402 241.567)" opacity="0.8">
              <g id="Group_71" data-name="Group 71" clip-path="url(#clip-path-3)">
                <path id="Path_77" data-name="Path 77" d="M334.07,364.946c3.907-29.956-17.117-54.7-43.538-69.586s-56.748-19.908-85.773-28.1-54.7-19.164-74.982-39.259-32.56-50.05-25.3-77.773c1.861-6.884,5.024-13.954,10.978-17.862s15.071-3.907,19.536,1.674c9.489,11.908-8.931,33.491,2.6,43.352,2.6,2.233,6.326,3.163,8.931,5.4,7.256,5.768,5.024,17.117,5.954,26.42,2.047,18.234,19.164,31.072,36.1,38.514,22.513,9.861,47.073,14.7,71.075,20.467s48.189,13.4,68.1,27.909,37.4,37.212,37.212,61.958c0,6.884-.93,15.443-5.21,20.839s-9.861,6.512-16,3.535-10.605-7.442-9.489-17.49" transform="translate(-102.24 -129.767)" fill="#6dd5fa"/>
              </g>
            </g>
            <path id="Path_78" data-name="Path 78" d="M158.433,233.51c-.93-11.164,7.256-20.839,16.745-26.048s20.28-7.256,29.956-11.908c24-11.35,39.445-38.328,40.561-65.865S234.9,74.615,216.112,54.335C208.483,46.148,199.18,37.4,198.994,26.24S210.158,5.215,221.508,5.4s21.769,7.815,28.653,17.3,10.605,21.025,14.327,32.188c-2.6-4.651,2.791-10.419,7.815-10.047s9.3,4.838,12.466,9.117a96.751,96.751,0,0,1,18.606,64.749,91.355,91.355,0,0,1-28.839,59.353c-18.42,16.745-42.608,24.56-66.237,32l-49.12,15.443" transform="translate(136.348 4.894)" fill="#e8505b"/>
            <g id="Group_74" data-name="Group 74" transform="translate(294.781 10.295)" opacity="0.8">
              <g id="Group_73" data-name="Group 73" clip-path="url(#clip-path-4)">
                <path id="Path_79" data-name="Path 79" d="M158.433,233.51c-.93-11.164,7.256-20.839,16.745-26.048s20.28-7.256,29.956-11.908c24-11.35,39.445-38.328,40.561-65.865S234.9,74.615,216.112,54.335C208.483,46.148,199.18,37.4,198.994,26.24S210.158,5.215,221.508,5.4s21.769,7.815,28.653,17.3,10.605,21.025,14.327,32.188c-2.6-4.651,2.791-10.419,7.815-10.047s9.3,4.838,12.466,9.117a96.751,96.751,0,0,1,18.606,64.749,91.355,91.355,0,0,1-28.839,59.353c-18.42,16.745-42.608,24.56-66.237,32l-49.12,15.443" transform="translate(-158.433 -5.401)" fill="#6dd5fa"/>
              </g>
            </g>
            <path id="Path_80" data-name="Path 80" d="M154.022,2.842a10.791,10.791,0,0,0-5.768,13.21,10.791,10.791,0,0,0,13.024,6.326,10.791,10.791,0,0,0,6.884-12.652,10.792,10.792,0,0,0-12.28-7.442" transform="translate(127.177 2.057)" fill="#e8505b"/>
            <g id="Group_76" data-name="Group 76" transform="translate(274.873 4.155)" opacity="0.8">
              <g id="Group_75" data-name="Group 75" clip-path="url(#clip-path-5)">
                <path id="Path_81" data-name="Path 81" d="M154.022,2.842a10.791,10.791,0,0,0-5.768,13.21,10.791,10.791,0,0,0,13.024,6.326,10.791,10.791,0,0,0,6.884-12.652,10.792,10.792,0,0,0-12.28-7.442" transform="translate(-147.696 -2.098)" fill="#6dd5fa"/>
              </g>
            </g>
            <path id="Path_82" data-name="Path 82" d="M199.932,485.635c-5.954-12.466-.744-28.1,8.745-38.142s22.7-15.815,35.351-21.4c28.1-12.28,57.678-26.979,71.819-54.143,4.838-9.117,7.628-19.164,10.233-29.211,5.21-19.35,10.047-41.119-.372-58.237-2.977-4.838-7.628-9.3-13.21-10.233s-13.024,2.419-17.117,7.628-5.768,11.722-6.512,18.234c-1.488,12.28-.186,24.932-1.488,37.212s-5.768,25.3-16,32.374-30.142,6.7-42.049,15.815-13.4,20.094-21.025,29.77-15.257,13.582-23.444,19.722-16.187,13.768-18.978,23.63A27.909,27.909,0,0,0,204.77,491.4" transform="translate(141.922 236.152)" fill="#e8505b"/>
            <g id="Group_78" data-name="Group 78" transform="translate(306.875 510.609)" opacity="0.8">
              <g id="Group_77" data-name="Group 77" clip-path="url(#clip-path-6)">
                <path id="Path_83" data-name="Path 83" d="M199.932,485.635c-5.954-12.466-.744-28.1,8.745-38.142s22.7-15.815,35.351-21.4c28.1-12.28,57.678-26.979,71.819-54.143,4.838-9.117,7.628-19.164,10.233-29.211,5.21-19.35,10.047-41.119-.372-58.237-2.977-4.838-7.628-9.3-13.21-10.233s-13.024,2.419-17.117,7.628-5.768,11.722-6.512,18.234c-1.488,12.28-.186,24.932-1.488,37.212s-5.768,25.3-16,32.374-30.142,6.7-42.049,15.815-13.4,20.094-21.025,29.77-15.257,13.582-23.444,19.722-16.187,13.768-18.978,23.63A27.909,27.909,0,0,0,204.77,491.4" transform="translate(-164.953 -274.458)" fill="#6dd5fa"/>
              </g>
            </g>
            <path id="Path_84" data-name="Path 84" d="M90.73,90.912A39.445,39.445,0,0,1,75.1,59.1,39.445,39.445,0,0,1,91.846,27.838c5.768-3.907,12.466-6.326,17.676-11.164s7.442-10.047,12.466-13.582a18.792,18.792,0,0,1,21.583.372,18.792,18.792,0,0,1,6.14,20.839c-2.419,6.512-8.187,11.35-10.605,17.862s-.93,14.885-1.861,22.141A30.7,30.7,0,0,1,96.126,89.051" transform="translate(64.693 0.133)" fill="#e8505b"/>
            <g id="Group_80" data-name="Group 80" transform="translate(139.794 0.248)" opacity="0.8">
              <g id="Group_79" data-name="Group 79" clip-path="url(#clip-path-7)">
                <path id="Path_85" data-name="Path 85" d="M90.73,90.912A39.445,39.445,0,0,1,75.1,59.1,39.445,39.445,0,0,1,91.846,27.838c5.768-3.907,12.466-6.326,17.676-11.164s7.442-10.047,12.466-13.582a18.792,18.792,0,0,1,21.583.372,18.792,18.792,0,0,1,6.14,20.839c-2.419,6.512-8.187,11.35-10.605,17.862s-.93,14.885-1.861,22.141A30.7,30.7,0,0,1,96.126,89.051" transform="translate(-75.101 -0.115)" fill="#6dd5fa"/>
              </g>
            </g>
            <path id="Path_86" data-name="Path 86" d="M96.738,84.706H93.947A10.047,10.047,0,0,1,83.9,74.659V27.4h22.885V74.473A10.047,10.047,0,0,1,96.738,84.52" transform="translate(72.267 23.828)" fill="#0575ff"/>
            <path id="Path_87" data-name="Path 87" d="M83.9,37.125,95.436,16.1l11.35,21.025Z" transform="translate(72.267 14.103)" fill="#ffbe9d"/>
            <path id="Path_88" data-name="Path 88" d="M87.6,24.473s3.535,5.21,9.117,0L92.251,16.1Z" transform="translate(75.451 14.103)" fill="#0575ff"/>
            <g id="Group_82" data-name="Group 82" transform="translate(159.516 51.228)" opacity="0.3">
              <g id="Group_81" data-name="Group 81" clip-path="url(#clip-path-8)">
                <line id="Line_1" data-name="Line 1" x2="2.7" fill="#fff"/>
              </g>
            </g>
            <path id="Path_90" data-name="Path 90" d="M107.071,51.709a73.493,73.493,0,0,1-11.536.372A73.5,73.5,0,0,1,84,51.709a73.491,73.491,0,0,1,11.536-.372,73.68,73.68,0,0,1,11.536.372" transform="translate(72.353 44.36)" fill="#263238"/>
            <path id="Path_91" data-name="Path 91" d="M106.8,49.809a70.33,70.33,0,0,1-11.35.372,70.33,70.33,0,0,1-11.35-.372,70.7,70.7,0,0,1,11.35-.372,70.7,70.7,0,0,1,11.35.372" transform="translate(72.439 42.724)" fill="#263238"/>
            <path id="Path_92" data-name="Path 92" d="M87.672,27.6c.186,0,.372,9.117.372,20.467s-.186,20.467-.372,20.467S87.3,59.416,87.3,48.067s.186-20.467.372-20.467" transform="translate(75.193 24)" fill="#fafafa"/>
            <path id="Path_93" data-name="Path 93" d="M92.672,27.6c.186,0,.372,9.117.372,20.467s-.186,20.467-.372,20.467S92.3,59.416,92.3,48.067s.186-20.467.372-20.467" transform="translate(79.496 24)" fill="#fafafa"/>
            <path id="Path_94" data-name="Path 94" d="M229.857,373.7l103.821,4.465,2.6,6.14-68.1,110.519L145.2,491.1Z" transform="translate(125.021 321.853)" fill="#263238"/>
            <path id="Path_95" data-name="Path 95" d="M142.7,474.03l123.73,7.07L330.992,381l-45.4,3.535L170.795,425.1Z" transform="translate(122.87 328.135)" fill="#e0e0e0"/>
            <path id="Path_96" data-name="Path 96" d="M134.741,474.419l113.5,1.861c-4.651-14.513,6.326-34.979,21.583-41.863,10.047-4.651,29.211-10.419,39.073-15.443,18.606-9.489,35.537-27.723,34.049-43.352l-46.7-1.488L236.7,371.9c-5.024,14.7-15.629,24.374-31.816,30.328s-30.886,5.21-45.026,11.164c-22.7,9.489-33.677,40.375-25.118,61.214" transform="translate(113.525 320.304)" fill="#ebebeb"/>
            <path id="Path_97" data-name="Path 97" d="M134.76,474.849l-.372-.744-.744-2.233a25.489,25.489,0,0,1-.93-3.721,37.214,37.214,0,0,1-.744-5.21,52.283,52.283,0,0,1,.93-14.513,53.771,53.771,0,0,1,7.256-18.048,43.536,43.536,0,0,1,3.349-4.651l1.861-2.233,2.047-2.047,2.233-2.047,2.419-2.047a41.494,41.494,0,0,1,5.582-3.349c7.815-3.907,17.3-5.582,26.979-7.442,4.838-.93,10.047-1.861,15.071-3.163a70.518,70.518,0,0,0,14.885-5.954,49.5,49.5,0,0,0,7.07-4.652,41.854,41.854,0,0,0,6.14-5.768,44.841,44.841,0,0,0,8.559-15.257V371.4h.372l49.678,1.861,53.213,1.675h3.721v.372a25.3,25.3,0,0,1-1.488,10.419,39.256,39.256,0,0,1-2.047,4.838,51.911,51.911,0,0,1-2.791,4.465,68.842,68.842,0,0,1-14.141,14.885,83.168,83.168,0,0,1-16.931,10.419c-5.954,2.6-12.094,4.837-18.048,7.07s-11.722,4.279-17.3,6.7a34.235,34.235,0,0,0-7.628,4.652,42.77,42.77,0,0,0-3.349,2.977c-.93,1.116-2.047,2.047-2.977,3.349a42.05,42.05,0,0,0-8,14.885,27.722,27.722,0,0,0-.372,15.815v.558H247.7l-82.611-1.488-22.885-.372h23.444l82.61,1.116-.372.558a28.467,28.467,0,0,1,.186-16.373,42.981,42.981,0,0,1,8-15.257c.93-1.116,2.047-2.233,2.977-3.349A25.532,25.532,0,0,1,262.4,438.2a34.978,34.978,0,0,1,7.814-4.838c5.582-2.419,11.536-4.465,17.49-6.7s11.908-4.465,17.862-7.07a82.429,82.429,0,0,0,16.745-10.419,68.1,68.1,0,0,0,13.954-14.7,50.61,50.61,0,0,0,2.6-4.465,38.7,38.7,0,0,0,2.047-4.652,24.374,24.374,0,0,0,1.489-10.047l.372.372h-3.349l-53.213-1.861-49.678-1.861.372-.372a45.585,45.585,0,0,1-8.745,15.443,42.421,42.421,0,0,1-6.326,5.954,50.046,50.046,0,0,1-7.07,4.652,71.075,71.075,0,0,1-15.071,6.14c-5.21,1.3-10.233,2.233-15.071,3.163-9.861,1.675-19.164,3.349-26.979,7.256a40.951,40.951,0,0,0-5.4,3.163l-2.419,1.861-2.233,2.047-2.047,2.047-1.861,2.233a42.973,42.973,0,0,0-3.163,4.465,53.585,53.585,0,0,0-7.256,17.862,52.842,52.842,0,0,0-.93,14.327,38.7,38.7,0,0,0,.744,5.21,26.6,26.6,0,0,0,.93,3.721l.744,2.233v.744" transform="translate(113.507 319.873)" fill="#263238"/>
            <path id="Path_98" data-name="Path 98" d="M216.794,379.954a9.3,9.3,0,0,0,.186-2.047,11.535,11.535,0,0,0-.93-5.4,10.978,10.978,0,0,0-5.4-5.768,12.107,12.107,0,0,0-16.373,6.326,13.769,13.769,0,0,0-1.116,8,13.4,13.4,0,0,0,1.861,5.024l1.116,1.675a5.022,5.022,0,0,1-1.489-1.488,12.653,12.653,0,0,1-2.233-5.21,14.14,14.14,0,0,1,.93-8.373,13.024,13.024,0,0,1,17.676-6.7,11.536,11.536,0,0,1,5.582,6.326,10.977,10.977,0,0,1,.558,5.582,7.44,7.44,0,0,1-.372,1.488v.558" transform="translate(165.436 314.111)" fill="#263238"/>
            <path id="Path_99" data-name="Path 99" d="M226.394,379.954a9.3,9.3,0,0,0,.186-2.047,11.535,11.535,0,0,0-.93-5.4,10.978,10.978,0,0,0-5.4-5.768,12.107,12.107,0,0,0-16.373,6.326,13.769,13.769,0,0,0-1.116,8,13.4,13.4,0,0,0,1.861,5.024l1.116,1.675a5.023,5.023,0,0,1-1.488-1.488,12.652,12.652,0,0,1-2.233-5.21,14.141,14.141,0,0,1,.93-8.373,13.024,13.024,0,0,1,17.676-6.7,11.535,11.535,0,0,1,5.582,6.326,10.977,10.977,0,0,1,.558,5.582,7.259,7.259,0,0,1-.372,1.488v.558" transform="translate(173.697 314.111)" fill="#263238"/>
            <path id="Path_100" data-name="Path 100" d="M233.481,379.979a9.3,9.3,0,0,0,.186-2.047,11.535,11.535,0,0,0-1.116-5.4,10.978,10.978,0,0,0-5.768-5.4A12.28,12.28,0,0,0,210.6,374.4a13.768,13.768,0,0,0-.558,8,13.583,13.583,0,0,0,2.233,5.024l1.3,1.675a5.023,5.023,0,0,1-1.488-1.3,12.653,12.653,0,0,1-2.6-5.024,14.14,14.14,0,0,1,.558-8.373,13.024,13.024,0,0,1,17.3-7.628,11.536,11.536,0,0,1,5.954,5.954,10.978,10.978,0,0,1,.93,5.582,7.441,7.441,0,0,1-.372,1.488v.558" transform="translate(180.006 315.015)" fill="#263238"/>
            <path id="Path_101" data-name="Path 101" d="M241.395,380.157v-2.047a11.537,11.537,0,0,0-1.489-5.21,10.978,10.978,0,0,0-5.954-5.21,12.265,12.265,0,0,0-15.629,8.187,13.768,13.768,0,0,0-.186,8,13.4,13.4,0,0,0,2.419,4.838l1.3,1.488a5.024,5.024,0,0,1-1.674-1.3,12.652,12.652,0,0,1-2.791-4.837,14.141,14.141,0,0,1,0-8.373,13.024,13.024,0,0,1,16.745-8.559,11.536,11.536,0,0,1,6.326,5.582,10.977,10.977,0,0,1,1.3,5.582,7.815,7.815,0,0,1-.186,1.488v.558" transform="translate(186.605 315.581)" fill="#263238"/>
            <path id="Path_102" data-name="Path 102" d="M249.154,379.92v-2.047a11.535,11.535,0,0,0-1.674-5.21,10.977,10.977,0,0,0-6.14-5.024A12.185,12.185,0,0,0,225.9,376.2a13.768,13.768,0,0,0,0,8,13.582,13.582,0,0,0,2.6,4.838l1.3,1.488a5.023,5.023,0,0,1-1.675-1.3,12.651,12.651,0,0,1-2.791-4.838,14.141,14.141,0,0,1-.186-8.373,13.21,13.21,0,0,1,6.326-8.187,13.024,13.024,0,0,1,10.233-.93,11.536,11.536,0,0,1,6.326,5.4,10.977,10.977,0,0,1,1.489,5.582,7.439,7.439,0,0,1-.186,1.488v.558" transform="translate(193.359 315.446)" fill="#263238"/>
            <path id="Path_103" data-name="Path 103" d="M255.844,381.066v-2.047a11.535,11.535,0,0,0-1.488-5.21,10.977,10.977,0,0,0-5.954-5.21,12.28,12.28,0,0,0-15.629,7.815,13.768,13.768,0,0,0-.372,8,13.583,13.583,0,0,0,2.419,4.838l1.3,1.488a5.021,5.021,0,0,1-1.675-1.3,12.652,12.652,0,0,1-2.791-5.024,13.955,13.955,0,0,1,.186-8.373,13.024,13.024,0,0,1,16.931-8.373,11.536,11.536,0,0,1,6.14,5.768,10.976,10.976,0,0,1,1.116,5.582,7.809,7.809,0,0,1-.186,1.488v.558" transform="translate(198.949 315.975)" fill="#263238"/>
            <path id="Path_104" data-name="Path 104" d="M306.162,169.618a102.144,102.144,0,0,0-15.443.744A64,64,0,0,0,234.9,234.181a113.685,113.685,0,0,0,3.907,30.328c8.931,31.816,11.722,59.725,10.605,73.307L279.369,354s13.954-19.908,27.165-28.467,58.051-31.63,75.726-55.26c11.35-15.257,13.582-46.515-13.582-73.866a91.914,91.914,0,0,0-62.7-26.793" transform="translate(202.216 146.187)" fill="#0575ff"/>
            <path id="Path_105" data-name="Path 105" d="M239.059,278.7l27.165,14.7-17.676,22.327L230.5,307.539Z" transform="translate(198.43 240.096)" fill="#455a64"/>
            <path id="Path_106" data-name="Path 106" d="M235.8,295.637c-.186,0,2.419-8.187,5.954-17.862s6.7-17.676,6.884-17.676-2.419,8.187-5.954,17.862-6.7,17.676-6.884,17.676" transform="translate(202.987 224.089)" fill="#263238"/>
            <path id="Path_107" data-name="Path 107" d="M248.7,301.491c-.186-.186,4.093-7.628,9.489-16.931S268.239,268,268.425,268s-4.093,7.628-9.489,16.931-10.047,16.559-10.233,16.559" transform="translate(214.09 230.888)" fill="#263238"/>
            <g id="Group_84" data-name="Group 84" transform="translate(461.305 316.735)" opacity="0.4">
              <g id="Group_83" data-name="Group 83" clip-path="url(#clip-path-9)">
                <path id="Path_108" data-name="Path 108" d="M303.9,170.2c-1.3,0-16.187,17.49-22.7,29.211-22.141,39.631-23.071,78.331-29.211,123.358-.93,6.512-4.093,20.28-4.093,19.908,3.349,2.6,14.327,7.628,14.327,7.628s10.419-12.466,14.513-18.792c16.559-25.3,34.421-45.026,48.562-71.633s27.723-50.236,14.7-77.587c0,0-22.7-13.024-36.1-12.28" transform="translate(-247.9 -170.2)"/>
              </g>
            </g>
            <path id="Path_109" data-name="Path 109" d="M382.962,254.809l-.372-.93-1.116-2.6a46.322,46.322,0,0,0-16.745-19.536,43.725,43.725,0,0,0-18.792-7.07h-.372a104.937,104.937,0,0,0-12.094-13.954,60.47,60.47,0,0,0-16.559-11.35,42.794,42.794,0,0,0-19.536-3.721,32.374,32.374,0,0,0-17.117,5.768H279.7a33.677,33.677,0,0,0-18.234-8.187,32.933,32.933,0,0,0-15.443,2.047,34.422,34.422,0,0,0-8.931,5.024l-2.047,1.675-.744.558.558-.744,2.047-1.861a33.3,33.3,0,0,1,24.56-7.442,34.049,34.049,0,0,1,18.792,8.187H279.7a32.932,32.932,0,0,1,17.49-5.954,43.351,43.351,0,0,1,19.908,3.721,61.03,61.03,0,0,1,16.745,11.536,104.011,104.011,0,0,1,12.094,13.954h-.372a44.1,44.1,0,0,1,19.164,7.256,45.4,45.4,0,0,1,11.536,10.978,42.608,42.608,0,0,1,5.024,8.931,15.221,15.221,0,0,1,.93,2.6v.93" transform="translate(201.701 165.748)" fill="#263238"/>
            <path id="Path_110" data-name="Path 110" d="M323.285,265.84a19.162,19.162,0,0,0-2.6-6.512,17.674,17.674,0,0,0-5.768-5.582,16,16,0,0,0-9.861-2.419h-.372v-.372a26.234,26.234,0,0,0-4.838-11.536,25.862,25.862,0,0,0-11.164-8.559,26.607,26.607,0,0,0-21.955,1.116h-.558a18.792,18.792,0,0,0-10.419-5.582,20.84,20.84,0,0,0-9.3.372A22.141,22.141,0,0,0,239,230.488l.372-.372,1.3-1.116a18.419,18.419,0,0,1,5.582-2.791,20.839,20.839,0,0,1,9.675-.558,19.35,19.35,0,0,1,10.977,5.768h-.558a26.979,26.979,0,0,1,10.605-3.163,27.352,27.352,0,0,1,12.094,1.861,26.42,26.42,0,0,1,11.536,8.931,26.792,26.792,0,0,1,5.024,11.908l-.372-.372a16.559,16.559,0,0,1,10.419,2.6,17.861,17.861,0,0,1,5.768,5.768,15.628,15.628,0,0,1,2.047,4.838,12.845,12.845,0,0,1,.186,1.3,1.3,1.3,0,0,1,0,.558" transform="translate(205.745 194.162)" fill="#263238"/>
            <path id="Path_111" data-name="Path 111" d="M258.3,296.08l-.93-.744a4.837,4.837,0,0,0-3.163.186l-2.419.372a3.722,3.722,0,0,1-2.6-1.116c-1.489-1.488-2.047-3.721-3.349-5.21a3.163,3.163,0,0,0-2.419-1.116l-2.791.558a6.326,6.326,0,0,1-2.791.186,5.023,5.023,0,0,1-2.233-1.116,5.209,5.209,0,0,1-1.861-2.977,2.532,2.532,0,0,1,0-1.3,2.88,2.88,0,0,0,.372,1.116,5.4,5.4,0,0,0,1.861,2.6,4.465,4.465,0,0,0,2.047.93,5.579,5.579,0,0,0,2.419-.186l2.977-.558a3.907,3.907,0,0,1,3.163,1.3c1.488,1.861,2.047,3.907,3.349,5.21a2.977,2.977,0,0,0,2.047.93l2.233-.372a4.837,4.837,0,0,1,3.535.186c.744.372.93.93.744.93" transform="translate(201.146 244.485)" fill="#263238"/>
            <path id="Path_112" data-name="Path 112" d="M260.548,294.368a117.948,117.948,0,0,1-13.21-6.512A117.972,117.972,0,0,1,234.5,280.6a117.749,117.749,0,0,1,13.21,6.512,117.767,117.767,0,0,1,12.838,7.256" transform="translate(201.873 241.731)" fill="#263238"/>
            <path id="Path_113" data-name="Path 113" d="M256.637,296.605l-1.116.558-1.3.558h-1.861a7.815,7.815,0,0,1-4.465-1.674,6.139,6.139,0,0,1-1.674-2.419,8.746,8.746,0,0,0-1.3-2.419,6.326,6.326,0,0,0-4.838-1.488,11.35,11.35,0,0,1-4.651-.372,4.279,4.279,0,0,1-2.419-2.233c-.372-.744-.186-1.116-.186-1.116l.558.93a4.279,4.279,0,0,0,2.233,1.675,11.722,11.722,0,0,0,4.465.186,6.884,6.884,0,0,1,5.582,1.674,9.3,9.3,0,0,1,1.489,2.6,5.4,5.4,0,0,0,1.488,2.047,7.442,7.442,0,0,0,3.907,1.674,5.582,5.582,0,0,0,2.977-.558h1.116" transform="translate(200.388 246.378)" fill="#263238"/>
            <path id="Path_114" data-name="Path 114" d="M139.343,216.114l46.7-6.884L163.716,177.6l-11.908.744a21.4,21.4,0,0,0-19.722,25.49Z" transform="translate(113.389 153.09)" fill="#004b7c"/>
            <path id="Path_116" data-name="Path 116" d="M266.62,284.548c.558,1.3.93,2.977,1.488,4.838a14.883,14.883,0,0,1,.558,5.024,22.886,22.886,0,0,1-1.116,6.14c-.744,1.861.93,3.535,2.6,2.6s3.721-5.768,3.535-11.908,6.14,1.3,8.559,3.907,10.047,10.605,11.536,10.605,2.233-2.233-.186-5.024-9.117-10.978-7.628-12.094,13.21,12.652,13.21,12.652,2.047,3.349,3.721,2.047-10.605-16.187-11.908-17.3.558-2.233,1.488-1.3,11.536,13.954,14.7,11.722-11.164-11.35-11.908-15.257,9.675,8.373,11.908,6.512,1.488-1.3-5.582-7.442c-3.349-2.977-16.187-11.908-16.187-11.908L247.083,158.4,217.5,175.331Z" transform="translate(187.243 136.566)" fill="#ffbe9d"/>
            <path id="Path_117" data-name="Path 117" d="M165.562,146.694l-42.98-51.166h0a29.771,29.771,0,0,0-2.047-5.024,16,16,0,0,0-10.047-8.373c-2.791-.558-5.768-.372-8-2.047s-1.675-1.861-2.6-2.6-2.6-.93-3.349.186a2.977,2.977,0,0,0,.186,2.6,24,24,0,0,0,7.442,9.675l-9.675,3.163S85.37,82.689,80.719,82.689s3.721,8.745,3.721,8.745S77,84.55,74.765,86.411s3.535,7.07,3.535,7.07a9.861,9.861,0,0,0-5.954-1.675c-2.047.372-3.907,2.791-2.791,4.651a4.838,4.838,0,0,0,1.861,1.488l11.35,6.326a13.768,13.768,0,0,0,6.14,2.233c5.768.186,10.233-3.349,16-3.163,0,0,32.374,68.1,35.723,71.633s74.424,8.373,74.424,8.373l41.119-35.537Z" transform="translate(59.633 66.406)" fill="#ffbe9d"/>
            <path id="Path_118" data-name="Path 118" d="M195.636,313.8l43.91,19.164-23.444,54.7c-5.024-2.6-3.349-35.351-3.349-35.351L184.1,341.151Z" transform="translate(158.499 270.303)" fill="#0575ff"/>
            <g id="Group_88" data-name="Group 88" transform="translate(375.345 603.825)" opacity="0.6">
              <g id="Group_87" data-name="Group 87" clip-path="url(#clip-path-11)">
                <path id="Path_119" data-name="Path 119" d="M202.185,325.169a2.33,2.33,0,0,1,3.721,2.791,2.6,2.6,0,0,1-3.349.372,2.419,2.419,0,0,1-.186-3.349" transform="translate(-201.627 -324.424)" fill="#fff"/>
              </g>
            </g>
            <g id="Group_90" data-name="Group 90" transform="translate(372.554 601.406)" opacity="0.6">
              <g id="Group_89" data-name="Group 89" clip-path="url(#clip-path-12)">
                <path id="Path_120" data-name="Path 120" d="M225.5,324.875l-4.465-1.674L200.2,376.227s0,2.977,1.861,3.349Z" transform="translate(-200.2 -323.014)" fill="#fff"/>
              </g>
            </g>
            <path id="Path_121" data-name="Path 121" d="M199.02,336.668c.186.186.93-1.116,2.419-2.047s2.791-1.116,2.791-1.488-1.674-.558-3.349.558-2.047,2.977-1.861,2.977" transform="translate(171.301 286.693)" fill="#263238"/>
            <path id="Path_122" data-name="Path 122" d="M199,339.528c.186.186,1.116-.744,2.791-1.116s2.791-.186,2.977-.372-1.3-1.116-3.163-.558-2.6,2.047-2.419,2.233" transform="translate(171.322 290.532)" fill="#263238"/>
            <path id="Path_123" data-name="Path 123" d="M204.407,342.316c.186-.186-.93-1.116-2.791-1.116s-2.791,1.116-2.6,1.3,1.3-.186,2.791-.186,2.6.372,2.791.186" transform="translate(171.311 293.883)" fill="#263238"/>
            <path id="Path_124" data-name="Path 124" d="M195.863,335.609c.372,0,.372-1.3,1.116-2.791s1.675-2.419,1.488-2.6-1.675.558-2.419,2.233-.558,3.349-.372,3.349" transform="translate(168.318 284.404)" fill="#263238"/>
            <path id="Path_125" data-name="Path 125" d="M193.447,335.378a5.582,5.582,0,0,0,1.116-2.791,13.394,13.394,0,0,0,.372-3.163,14.136,14.136,0,0,0-.186-1.861,3.534,3.534,0,0,0-.372-1.116,1.3,1.3,0,0,0-1.3-.744,1.675,1.675,0,0,0-1.116.93,3.906,3.906,0,0,0-.372,1.116,10.608,10.608,0,0,0-.186,2.047,10.419,10.419,0,0,0,.558,3.163,5.44,5.44,0,0,0,1.488,2.6l-.93-2.791a11.91,11.91,0,0,1-.372-2.977,11.168,11.168,0,0,1,.186-1.861c.186-.558.372-1.116.558-1.116h.372a2.79,2.79,0,0,1,.186.744,15.069,15.069,0,0,1,.186,1.861,16.372,16.372,0,0,1-.186,3.163,20.474,20.474,0,0,0-.372,2.791" transform="translate(164.781 280.541)" fill="#263238"/>
            <path id="Path_126" data-name="Path 126" d="M197.346,332.091a5.973,5.973,0,0,0-2.419-1.861,9.674,9.674,0,0,0-3.163-.93h-2.047a2.419,2.419,0,0,0-2.047,1.116,1.3,1.3,0,0,0,.186,1.489l.93.744,1.861.744a6.886,6.886,0,0,0,3.349,0,4.156,4.156,0,0,0,2.6-1.488,24.2,24.2,0,0,1-2.791.744,6.886,6.886,0,0,1-2.977-.186l-1.488-.744c-.558-.372-.93-.744-.744-.93a2.126,2.126,0,0,1,1.3-.558h1.861l2.977.558,2.6,1.116" transform="translate(161.44 283.642)" fill="#263238"/>
            <path id="Path_127" data-name="Path 127" d="M172.1,358.675l18.048,37.956,5.768,34.235a4.279,4.279,0,0,0,8.187.93c3.349-8.187,15.443-38.7,13.954-41.305S201.683,349,201.683,349Z" transform="translate(148.171 300.596)" fill="#0575ff"/>
            <g id="Group_92" data-name="Group 92" transform="translate(349.297 688.296)" opacity="0.6">
              <g id="Group_91" data-name="Group 91" clip-path="url(#clip-path-13)">
                <path id="Path_128" data-name="Path 128" d="M187.7,416.315,203.515,369.8l.744,1.675a6.513,6.513,0,0,1,.372,4.465c-1.116,3.907-4.652,14.885-13.768,37.77a4.279,4.279,0,0,1-3.163,2.6" transform="translate(-187.7 -369.8)" fill="#fff"/>
              </g>
            </g>
            <g id="Group_94" data-name="Group 94" transform="translate(351.343 678.249)" opacity="0.6">
              <g id="Group_93" data-name="Group 93" clip-path="url(#clip-path-14)">
                <path id="Path_129" data-name="Path 129" d="M189.148,365.637a2.6,2.6,0,0,0,.744,3.349,2.419,2.419,0,0,0,3.349-.744,2.791,2.791,0,0,0-.744-3.535,2.6,2.6,0,0,0-3.349,1.116" transform="translate(-188.776 -364.334)" fill="#fff"/>
              </g>
            </g>
            <path id="Path_130" data-name="Path 130" d="M192.789,384.852a9.3,9.3,0,0,0-9.489-.372,2.449,2.449,0,0,1,1.116-1.116,6.884,6.884,0,0,1,7.442.186,5.142,5.142,0,0,1,1.116,1.116" transform="translate(157.81 329.307)" fill="#263238"/>
            <path id="Path_131" data-name="Path 131" d="M191.908,387.67a35.159,35.159,0,0,0-4.093-.186,34.817,34.817,0,0,0-3.907,1.116c-.186-.186,1.3-1.861,3.907-2.047a4.838,4.838,0,0,1,4.279,1.116" transform="translate(158.319 332.814)" fill="#263238"/>
            <path id="Path_132" data-name="Path 132" d="M195.352,379.548a43.556,43.556,0,0,0-6.326-.558,43.37,43.37,0,0,0-6.326,1.3,11.722,11.722,0,0,1,12.652-.558" transform="translate(157.294 325.679)" fill="#263238"/>
            <path id="Path_133" data-name="Path 133" d="M191.833,372.567c0,.186-2.6.372-5.4,1.488s-4.651,2.791-4.838,2.6a10.605,10.605,0,0,1,10.233-4.093" transform="translate(156.347 320.752)" fill="#263238"/>
            <path id="Path_134" data-name="Path 134" d="M189.07,366.572a13.769,13.769,0,0,0-10.047,5.024c-.186,0,.186-.744.744-1.675A9.489,9.489,0,0,1,187.4,366.2c1.116,0,1.861.372,1.675.372" transform="translate(154.087 315.398)" fill="#263238"/>
            <path id="Path_135" data-name="Path 135" d="M184.859,370.28a3.722,3.722,0,0,1-.744-1.488,10.978,10.978,0,0,1-.558-4.279,4.838,4.838,0,0,1,.93-2.977,1.674,1.674,0,0,1,1.861-.372,2.791,2.791,0,0,1,1.3,1.488,6.14,6.14,0,0,1-2.6,7.256,7.07,7.07,0,0,1-7.815-.558,2.419,2.419,0,0,1-.93-1.861A1.675,1.675,0,0,1,177.6,366a5.955,5.955,0,0,1,3.163.186,12.281,12.281,0,0,1,3.907,1.861l1.116,1.116a19.538,19.538,0,0,0-5.21-2.233,5.581,5.581,0,0,0-2.791,0,.93.93,0,0,0-.744.93,1.674,1.674,0,0,0,.744,1.116,6.326,6.326,0,0,0,6.884.372,5.21,5.21,0,0,0,2.233-6.14,2.047,2.047,0,0,0-.93-1.116.93.93,0,0,0-1.116.186,4.465,4.465,0,0,0-.93,2.6,16.373,16.373,0,0,0,.558,5.768" transform="translate(151.786 310.946)" fill="#263238"/>
            <path id="Path_136" data-name="Path 136" d="M286.326,423.874l-49.678-33.491,16.373-161.5-47.073-27.537L162.968,191.3s-18.048,37.4-26.048,61.4c-16.931,50.98-29.025,69.214-26.234,106.054.93,11.722,43.91,40.933,71.261,57.12a85.4,85.4,0,0,0,1.488,9.675c9.3,42.049,37.77,98.053,37.77,98.053l43.166-20.094-13.954-47.631,14.513,8.373Zm-106.8-104.193,5.768-25.862c-1.3,16.373-2.419,33.677-3.163,50.05a51.167,51.167,0,0,1-2.6-24.188" transform="translate(94.973 164.88)" fill="#263238"/>
            <path id="Path_137" data-name="Path 137" d="M189.216,502.274l-.372-.744-.93-2.047-3.349-7.814c-2.791-6.884-6.884-16.745-11.908-29.025s-10.791-26.979-16.745-43.538c-1.488-4.093-2.977-8.373-4.279-12.838a37.728,37.728,0,0,1-1.674-6.884l-.372-1.675v-1.675l-.372-3.535q-.744-7.07-1.3-14.513c-.186-2.419-.372-5.024-.372-7.442s-.186-5.024,0-7.628c.744-20.281,2.419-39.445,3.907-57.12l3.907-46.515c1.116-13.21,1.861-24,2.233-31.444.186-3.721.372-6.512.372-8.559V216.3a4.463,4.463,0,0,1,0,.744v2.233c0,2.047-.186,4.838-.186,8.559-.372,7.442-.93,18.234-2.047,31.444L152,305.795c-1.3,17.49-2.977,36.84-3.721,56.934-.186,2.6,0,5.024,0,7.442s.186,5.024.372,7.442.744,9.675,1.3,14.513l.372,3.535v1.675l.372,1.674c.372,2.233,1.116,4.465,1.675,6.7s2.791,8.559,4.279,12.838c5.768,16.559,11.722,31.258,16.559,43.538L184.936,491.3l3.163,8,.744,2.047v.744" transform="translate(126.963 186.395)" fill="#455a64"/>
            <path id="Path_138" data-name="Path 138" d="M154.517,229.837l-1.116-.93a11.723,11.723,0,0,1-2.047-3.349,36.468,36.468,0,0,1-2.047-12.838,108.472,108.472,0,0,1,.558-13.024,30.884,30.884,0,0,1,.744-5.4,30.513,30.513,0,0,1-.186,5.4c-.186,3.349-.372,7.815-.372,12.838a41.3,41.3,0,0,0,1.861,12.652,13.954,13.954,0,0,0,1.675,3.349l.93,1.116" transform="translate(128.542 167.462)" fill="#455a64"/>
            <path id="Path_139" data-name="Path 139" d="M149.415,192.7a10.979,10.979,0,0,1,.372,4.465,20.839,20.839,0,0,1-11.908,17.49,10.978,10.978,0,0,1-4.279,1.3l4.093-1.861a21.955,21.955,0,0,0,11.536-16.931c.372-2.791.186-4.465.372-4.465" transform="translate(115.039 166.085)" fill="#455a64"/>
            <path id="Path_140" data-name="Path 140" d="M189.041,243.286a1.861,1.861,0,0,1,0,.558v1.488l-.558,5.582L186.25,271.2,178.621,337.8a121.869,121.869,0,0,0,2.419,36.654,128.2,128.2,0,0,0,4.465,15.443l4.651,13.21,6.7,19.164,1.861,5.21.372,1.3h0l-.558-1.3-1.861-5.21-6.884-19.164-4.838-13.21a125.775,125.775,0,0,1-4.651-15.443,120.938,120.938,0,0,1-2.6-36.84c2.977-26.048,5.768-49.678,7.814-66.8l2.419-20.28.744-5.582V243.1" transform="translate(152.628 209.459)" fill="#455a64"/>
            <path id="Path_141" data-name="Path 141" d="M138.6,200.15l7.628-19.35,17.49,25.862-23.257-5.768" transform="translate(119.342 155.844)" fill="#ffbe9d"/>
            <path id="Path_142" data-name="Path 142" d="M327.773,202.01,307.12,155.681c-2.419-7.442-7.07-8.559-10.978-12.838l-51.725-29.211c-37.77-15.443-58.237,36.282-58.237,36.282l-34.235,78.145c-40.189,13.4-11.722,44.282-11.722,44.282s-10.978-18.978-.186-25.862,23.816,11.722,35.723,29.77c14.141,21.211,60.283,34.979,60.283,34.979,5.4-5.768,3.907-25.676,8.187-36.282,1.3-3.349,33.3-77.4,33.3-77.4L290,227.5s15.815-18.606,23.63-21.583a87.446,87.446,0,0,1,14.327-4.093" transform="translate(112.321 95.561)" fill="#0575ff"/>
            <path id="Path_143" data-name="Path 143" d="M207.51,180.6l-1.488,1.116a29.213,29.213,0,0,1-4.651,2.233,33.677,33.677,0,0,1-32.747-5.024,29.4,29.4,0,0,1-3.907-3.535l-1.116-1.489c.186-.186,1.861,2.047,5.4,4.465a34.979,34.979,0,0,0,32,5.024,39.776,39.776,0,0,0,6.512-2.791" transform="translate(140.856 149.9)" fill="#263238"/>
            <path id="Path_144" data-name="Path 144" d="M141.372,162.1h0l32,2.977,50.98-53.957L194.4,110,141,115.21a138.616,138.616,0,0,1,.558,46.7" transform="translate(121.407 94.913)" fill="#0575ff"/>
            <path id="Path_145" data-name="Path 145" d="M184.708,122.7l-.372.93-1.3,2.791-4.651,10.047c-3.907,8.559-9.3,20.467-14.885,33.677s-10.978,25.118-14.885,33.677l-4.652,10.047-1.3,2.791-.558.93.372-.93,1.116-2.791,4.465-10.233,14.513-33.863c5.768-13.21,11.164-25.118,15.257-33.491l5.024-10.047,1.489-2.6.558-.93" transform="translate(122.354 105.843)" fill="#263238"/>
            <path id="Path_146" data-name="Path 146" d="M225.045,131.2c0,.186-1.861,1.116-4.651,3.535a33.309,33.309,0,0,0-4.279,4.465,33.863,33.863,0,0,0-6.512,13.582,33.306,33.306,0,0,0-.744,6.14c-.186,3.535.372,5.768.186,5.768a5.024,5.024,0,0,1-.372-1.488,12.1,12.1,0,0,1-.186-1.861,20.09,20.09,0,0,1-.186-2.419,29.768,29.768,0,0,1,.744-6.326,32.188,32.188,0,0,1,6.7-13.954,29.769,29.769,0,0,1,4.652-4.465l2.047-1.488,1.674-.93,1.488-.558" transform="translate(179.325 113.158)" fill="#263238"/>
            <path id="Path_147" data-name="Path 147" d="M253.584,114.536l-29.956,56a19.728,19.728,0,1,1-34.793-18.606l5.21-9.675s-13.024-8.373-6.884-22.513,25.3-47.817,29.583-55.446l25.3,11.35a28.281,28.281,0,0,1,11.722,38.886" transform="translate(159.717 55.584)" fill="#ffbe9d"/>
            <path id="Path_148" data-name="Path 148" d="M190.875,106.1a35.724,35.724,0,0,0,20.467,2.977s-8.745,8.187-22.141.558Z" transform="translate(162.888 91.557)" fill="#eb996e"/>
            <path id="Path_149" data-name="Path 149" d="M195.366,82.637a2.233,2.233,0,0,0,1.116,2.791,2.047,2.047,0,0,0,2.791-.93,2.233,2.233,0,0,0-.93-2.791,2.047,2.047,0,0,0-2.791.93" transform="translate(168.072 70.365)" fill="#263238"/>
            <path id="Path_150" data-name="Path 150" d="M195.386,81.5c.186.372,2.233,0,4.279.93s3.163,2.791,3.535,2.6.186-.558-.372-1.488a5.954,5.954,0,0,0-2.791-2.419,5.768,5.768,0,0,0-3.535-.372c-.93.186-1.3.558-1.3.744" transform="translate(168.051 69.64)" fill="#263238"/>
            <path id="Path_151" data-name="Path 151" d="M206.181,87.937a2.233,2.233,0,0,0,.93,2.791,2.047,2.047,0,0,0,2.791-.93,2.233,2.233,0,0,0-.93-2.791,2.047,2.047,0,0,0-2.791.93" transform="translate(177.351 74.927)" fill="#263238"/>
            <path id="Path_152" data-name="Path 152" d="M206.686,86.8c.186.372,2.233,0,4.279.93s3.163,2.791,3.535,2.6.186-.558-.372-1.488a5.954,5.954,0,0,0-2.791-2.419,5.768,5.768,0,0,0-3.535-.372c-.93.186-1.3.558-1.3.744" transform="translate(177.776 74.201)" fill="#263238"/>
            <path id="Path_153" data-name="Path 153" d="M200.838,101.276l-3.163-2.233c-.558-.372-.93-.558-.93-1.116s.558-.93,1.116-1.488L201.4,92.9a78.7,78.7,0,0,0,8.559-9.3,78.892,78.892,0,0,0-9.3,8.559L197.3,95.694a3.536,3.536,0,0,0-1.3,2.047,1.488,1.488,0,0,0,.558,1.116l.93.558,3.535,1.675" transform="translate(168.74 72.194)" fill="#263238"/>
            <path id="Path_154" data-name="Path 154" d="M205.919,95.486c-.372-.186-1.3,2.233-4.093,2.977s-5.024-.558-5.21-.372.372.744,1.3,1.116a6.326,6.326,0,0,0,4.279.372,5.582,5.582,0,0,0,3.349-2.6c.558-.93.558-1.675.372-1.675" transform="translate(169.24 82.263)" fill="#263238"/>
            <path id="Path_155" data-name="Path 155" d="M208.3,82.058c0,.744,2.233,1.3,4.652,2.791s4.093,2.977,4.651,2.6.186-.93-.372-1.861a9.3,9.3,0,0,0-7.07-4.093c-1.116,0-1.675.186-1.861.558" transform="translate(179.325 70.386)" fill="#263238"/>
            <path id="Path_156" data-name="Path 156" d="M197.3,78.4c.186.744,1.861.744,3.721,1.675s3.163,1.861,3.721,1.488.186-.744-.186-1.488a5.768,5.768,0,0,0-5.954-2.419c-.93.186-1.3.558-1.3.93" transform="translate(169.859 66.974)" fill="#263238"/>
            <path id="Path_157" data-name="Path 157" d="M220.2,95.8c.372,0,10.791,1.488,6.326,10.978s-13.024,2.791-13.024,2.6l6.7-13.4" transform="translate(183.8 82.693)" fill="#ffbe9d"/>
            <path id="Path_158" data-name="Path 158" d="M216,105.084l.372.372a1.861,1.861,0,0,0,1.3.558,4.465,4.465,0,0,0,3.721-2.791,5.954,5.954,0,0,0,.744-2.6,2.047,2.047,0,0,0-.558-1.861.93.93,0,0,0-1.116,0l-.372.372s-.186-.186.186-.558l.744-.372h1.116a2.6,2.6,0,0,1,.93,2.233,6.327,6.327,0,0,1-.744,2.977,4.651,4.651,0,0,1-4.465,2.977,2.047,2.047,0,0,1-1.3-.93q-.279-.558,0-.558" transform="translate(185.952 84.758)" fill="#eb996e"/>
            <path id="Path_159" data-name="Path 159" d="M233.856,122.164a5.582,5.582,0,0,0-5.582.372c-1.3,1.116-2.047,2.6-3.349,3.721a3.721,3.721,0,0,1-4.465.744,3.163,3.163,0,0,1-.93-3.163,8.931,8.931,0,0,1,1.3-3.163c2.6-4.279,5.4-8.187,7.628-12.652A25.118,25.118,0,0,0,231.437,93.7a13.768,13.768,0,0,0-8.373-11.35c-3.163-1.116-6.512-.744-9.675-1.675a12.838,12.838,0,0,1-8.187-7.628L203.9,71c.186-.186,1.3-2.047,2.419-2.419,8.373-2.791,19.536.372,26.42,5.768a30.514,30.514,0,0,1,11.722,22.885c0,8.745-5.4,18.42-10.605,24.932" transform="translate(175.538 58.376)" fill="#263238"/>
            <path id="Path_160" data-name="Path 160" d="M237.835,125.99c2.6-4.465,6.884-7.628,10.047-11.722s5.4-9.675,3.163-14.327c-.744-1.488-2.047-2.977-2.791-4.465a22.143,22.143,0,0,1-.93-5.21,18.234,18.234,0,0,0-8.931-13.024c-3.349-1.861-7.07-2.6-10.419-4.279s-9.117-8-14.7-10.233a7.07,7.07,0,0,0-5.768-.186,3.535,3.535,0,0,0-1.488,5.024,2.977,2.977,0,0,0-4.093-2.047,4.651,4.651,0,0,0-2.419,4.465,9.86,9.86,0,0,0,2.047,4.838,25.118,25.118,0,0,0,14.327,9.861l12.838-.93,10.605,7.814,7.814,12.466L233,122.454Z" transform="translate(171.745 53.62)" fill="#263238"/>
            <path id="Path_161" data-name="Path 161" d="M218.855,76.721A45.4,45.4,0,1,0,156.9,121.933l.744,11.35,39.631-2.6s-.186-6.512-.372-12.094a45.4,45.4,0,0,0,21.955-41.863" transform="translate(110.348 29.767)" fill="#0575ff"/>
            <path id="Path_162" data-name="Path 162" d="M172.882,110.135V107.9c0-1.488.186-3.535.372-6.326s.558-6.14,1.116-10.047a67.356,67.356,0,0,1,3.349-12.838,43.167,43.167,0,0,1,3.349-7.07,8.373,8.373,0,0,1,2.977-2.977,4.651,4.651,0,0,1,4.279-.186,3.278,3.278,0,0,1,1.488,4.093,6.512,6.512,0,0,1-3.349,3.163,12.466,12.466,0,0,1-9.489,0,12.652,12.652,0,0,1-6.884-7.07,9.489,9.489,0,0,1-.558-5.21,4.093,4.093,0,0,1,3.907-3.349,2.977,2.977,0,0,1,2.419,1.488,4.093,4.093,0,0,1,.558,2.791,8.931,8.931,0,0,1-2.977,4.651,13.582,13.582,0,0,1-10.419,3.721,11.722,11.722,0,0,1-9.117-5.954,6.884,6.884,0,0,1-.744-5.4,3.535,3.535,0,0,1,1.861-2.047,3.349,3.349,0,0,1,2.791,0,4.465,4.465,0,0,1,2.047,1.861,7.07,7.07,0,0,1,.93,2.6,13.025,13.025,0,0,1-.372,5.21,13.582,13.582,0,0,1-5.954,8,13.768,13.768,0,0,1-9.3,1.861,7.256,7.256,0,0,1-4.279-1.861,3.535,3.535,0,0,1-.558-4.279,2.977,2.977,0,0,1,2.047-1.116,4.28,4.28,0,0,1,2.233.186,6.512,6.512,0,0,1,2.977,2.977c1.3,2.419,2.419,4.651,3.349,6.884,4.279,8.931,7.256,16.187,9.3,21.4l2.233,5.954.558,1.488h0l-.558-1.488-2.419-5.768c-2.047-5.024-5.21-12.466-9.489-21.211-1.116-2.233-2.233-4.465-3.535-6.884a6.14,6.14,0,0,0-2.791-2.791,2.791,2.791,0,0,0-3.163,4.465,6.7,6.7,0,0,0,3.907,1.675,13.21,13.21,0,0,0,8.931-1.861,13.024,13.024,0,0,0,5.582-7.628,12.466,12.466,0,0,0,.372-5.024,4.838,4.838,0,0,0-2.6-4.093,2.791,2.791,0,0,0-2.419,0,2.977,2.977,0,0,0-1.488,1.861,6.326,6.326,0,0,0,.558,5.024,11.164,11.164,0,0,0,8.745,5.582,13.024,13.024,0,0,0,9.861-3.535,8.373,8.373,0,0,0,2.791-4.465,3.535,3.535,0,0,0-.372-2.419,2.419,2.419,0,0,0-2.047-1.116,3.163,3.163,0,0,0-2.233.93,3.907,3.907,0,0,0-1.116,2.047,8.931,8.931,0,0,0,.558,4.838,12.094,12.094,0,0,0,6.512,6.884,11.908,11.908,0,0,0,9.117,0,5.954,5.954,0,0,0,2.977-2.977,2.6,2.6,0,0,0-1.3-3.535,4.279,4.279,0,0,0-3.907.186,8,8,0,0,0-2.791,2.791,42.793,42.793,0,0,0-3.349,6.884A67.724,67.724,0,0,0,174,91.715c-.558,3.907-.93,7.256-1.3,9.861l-.558,6.326v2.233" transform="translate(120.411 51.054)" fill="#263238"/>
            <path id="Path_163" data-name="Path 163" d="M181.246,92.524,147.2,94.756a2.6,2.6,0,1,1-.372-5.024L180.874,87.5a2.6,2.6,0,0,1,.372,5.024" transform="translate(123.768 75.55)" fill="#263238"/>
            <path id="Path_164" data-name="Path 164" d="M180.561,91.4l-34.049,2.233a2.6,2.6,0,0,0,.372,5.024h3.721l5.582,9.117a3.349,3.349,0,0,0,2.977,1.488l12.094-.744a3.349,3.349,0,0,0,2.791-2.047l4.279-9.675h2.6a2.6,2.6,0,0,0-.372-5.024" transform="translate(124.639 78.906)" fill="#263238"/>
            <g id="Group_96" data-name="Group 96" transform="translate(243.429 73.183)" opacity="0.2">
              <g id="Group_95" data-name="Group 95" clip-path="url(#clip-path-15)">
                <path id="Path_165" data-name="Path 165" d="M140.207,48.511a33.3,33.3,0,0,1,8.745-6.7,24,24,0,0,1,6.884-2.419c1.675-.372,2.6-.186,2.791.186s-3.163,2.233-7.442,5.582a39.445,39.445,0,0,0-12.838,16.745,39.258,39.258,0,0,0-1.674,21.025c.93,5.4,2.419,8.745,1.674,9.3s-1.116-.372-2.233-1.675a24.188,24.188,0,0,1-3.349-6.512A33.306,33.306,0,0,1,130.9,73.257a35.351,35.351,0,0,1,2.233-13.21" transform="translate(-130.718 -39.208)" fill="#fff"/>
              </g>
            </g>
            <g id="Group_98" data-name="Group 98" transform="translate(276.361 69.276)" opacity="0.2">
              <g id="Group_97" data-name="Group 97" clip-path="url(#clip-path-16)">
                <path id="Path_166" data-name="Path 166" d="M154.413,42.612c-2.791.186-5.4-.372-5.768-2.047s.372-1.675,1.3-2.233a9.117,9.117,0,0,1,8.559-.558c1.116.558,1.675,1.3,1.488,2.047" transform="translate(-148.459 -37.216)" fill="#fff"/>
              </g>
            </g>
            <path id="Path_167" data-name="Path 167" d="M167.687,100.6l-2.419-.558a18.978,18.978,0,0,0-11.536,1.116l-2.233.93a7.071,7.071,0,0,1,2.047-1.3,16.559,16.559,0,0,1,11.722-1.116,7.07,7.07,0,0,1,2.233.93" transform="translate(130.443 85.517)" fill="#455a64"/>
            <path id="Path_168" data-name="Path 168" d="M175.637,94.3l-13.768,1.116-13.768.558,13.768-1.116,13.768-.558" transform="translate(127.517 81.402)" fill="#455a64"/>
            <path id="Path_169" data-name="Path 169" d="M172.571,96.5l-3.349.558-8.187.744-8.187.372H149.5l3.349-.372,8.187-.558,8.187-.744h3.349" transform="translate(128.722 83.295)" fill="#455a64"/>
            <path id="Path_170" data-name="Path 170" d="M30,227l7.442,11.908s31.63-29.025,62.888-20.839c0,0-28.095-23.816-70.331,8.931" transform="translate(25.881 180.719)" fill="#0575ff"/>
            <path id="Path_171" data-name="Path 171" d="M67.8,227.03s23.071-25.118,57.12-19.35l9.3,1.488-2.977-5.4S72.079,183.492,67.8,227.216" transform="translate(58.411 171.572)" fill="#0575ff"/>
            <path id="Path_172" data-name="Path 172" d="M77.043,169.5S30.714,161.5.2,177.877L48.575,268.86s39.631-38.142,77.4-14.7Z" transform="translate(0.235 144.44)" fill="#f5f5f5"/>
            <path id="Path_173" data-name="Path 173" d="M77.244,169.676v.372l.744,1.116,2.6,4.465,10.047,17.3,35.909,61.214a.372.372,0,0,1-.186.558h-.372a51.353,51.353,0,0,0-17.862-6.884,54.89,54.89,0,0,0-10.047-.744,61.959,61.959,0,0,0-10.233,1.3,88.378,88.378,0,0,0-38.328,20.467l-.372.372H48.4L.029,178.234a.372.372,0,0,1,.186-.558h0A93.4,93.4,0,0,1,31.1,168.559a155.737,155.737,0,0,1,24.746-1.116,126.942,126.942,0,0,1,15.815,1.3l4.093.558h0l-4.093-.558a143.733,143.733,0,0,0-15.815-.93,158.9,158.9,0,0,0-24.746,1.3,93.216,93.216,0,0,0-30.7,9.3v-.558l48.375,90.983H48.4l.372-.372A97.868,97.868,0,0,1,67.2,255.449a77.583,77.583,0,0,1,20.28-7.629,62.515,62.515,0,0,1,10.419-1.3,56,56,0,0,1,10.233.744,52.1,52.1,0,0,1,18.048,7.07l-.558.558-35.165-61.4-9.861-17.3-2.419-5.024-.744-1.116v-.372" transform="translate(0.034 144.269)" fill="#263238"/>
            <path id="Path_174" data-name="Path 174" d="M114.177,161.311S79.012,138.984,41.8,179.917L90.734,264.76s10.047-34.421,68.284-22.513Z" transform="translate(36.036 133.841)" fill="#f5f5f5"/>
            <path id="Path_175" data-name="Path 175" d="M114.372,161.3v.372l.558,1.116,2.419,4.279,9.3,16.373,32.933,58.795a.372.372,0,0,1-.186.558h-.372l-8.745-1.489-4.465-.558-4.651-.372h-9.3l-4.838.558a33.5,33.5,0,0,0-4.838.744l-4.838,1.116-4.651,1.674-4.465,2.047-2.233,1.3-2.047,1.3-3.907,3.163A41.3,41.3,0,0,0,96.511,256a29.4,29.4,0,0,0-5.21,8.931h0a.372.372,0,0,1-.558.372h-.186l-2.047-3.349-46.887-81.68a.372.372,0,0,1,0-.372,82.052,82.052,0,0,1,26.42-19.908,52.654,52.654,0,0,1,24.932-4.652,50.608,50.608,0,0,1,16,3.535l3.907,1.861.93.558h0l-.93-.558-3.907-1.675a51.724,51.724,0,0,0-16-3.349,52.469,52.469,0,0,0-24.56,4.652,81.866,81.866,0,0,0-26.048,19.908V179.9L89.44,261.21l2.047,3.349h-.93a30.328,30.328,0,0,1,5.4-9.3,42.422,42.422,0,0,1,3.535-3.907l4.093-3.163,2.233-1.488,2.233-1.3a35.8,35.8,0,0,1,4.651-2.233l4.838-1.674,4.838-1.116a33.675,33.675,0,0,1,4.838-.744l4.838-.558h9.489l4.652.372,4.465.558,8.745,1.489-.372.558-32.374-58.237-9.117-16.559-2.419-4.465-.558-1.116V161.3" transform="translate(35.841 133.856)" fill="#263238"/>
            <path id="Path_176" data-name="Path 176" d="M7.2,149.6,59.483,250.444s42.608-1.861,60.469,18.792L71.577,184.951S43.11,149.6,7.2,149.6" transform="translate(6.259 128.993)" fill="#f5f5f5"/>
            <path id="Path_177" data-name="Path 177" d="M7.2,149.6h8.373l3.535.558,4.093.93,4.465,1.3c12.466,4.093,29.211,14.327,44.282,31.63h0l48.562,84.285a.372.372,0,0,1-.186.558h-.558l-2.047-1.3a44.468,44.468,0,0,0-13.4-8.931,77.588,77.588,0,0,0-14.885-4.838,124.846,124.846,0,0,0-29.77-2.977H59.3L21.713,177.881,10.921,157.042,8.13,151.461l-.744-1.488V149.6l.372.558.744,1.488,2.977,5.582,10.978,20.839,37.77,72.191h-.372a125.215,125.215,0,0,1,29.956,2.977,78.144,78.144,0,0,1,15.071,5.024,45.4,45.4,0,0,1,13.582,9.117l2.047,2.047-.744.558L71.391,185.51h0a122.611,122.611,0,0,0-22.885-20.653A88.194,88.194,0,0,0,27.48,153.879l-4.465-1.3-3.907-.93-3.535-.558H12.6l-5.4-.372" transform="translate(6.259 128.993)" fill="#263238"/>
            <path id="Path_178" data-name="Path 178" d="M98.614,303.2l1.116,1.861a12.839,12.839,0,0,0,5.21,4.838l1.861.93-1.861,1.116a12.838,12.838,0,0,0-4.838,5.21l-.93,1.861-1.116-1.861a12.838,12.838,0,0,0-5.21-4.838l-2.047-.93,1.861-1.116a12.837,12.837,0,0,0,4.838-5.21Z" transform="translate(78.205 261.181)" fill="#0575ff"/>
            <path id="Path_179" data-name="Path 179" d="M43.214,96.9l1.116,1.861a12.838,12.838,0,0,0,5.21,4.838l1.861.93-1.861,1.116a12.838,12.838,0,0,0-4.838,5.21l-.93,1.861-1.116-1.861a12.838,12.838,0,0,0-5.21-4.838l-2.047-.93,1.861-1.116a12.838,12.838,0,0,0,5.024-5.024Z" transform="translate(30.528 83.64)" fill="#0575ff"/>
            <path id="Path_180" data-name="Path 180" d="M299.815,132.5l1.116,1.861a12.839,12.839,0,0,0,5.21,4.838l2.047.93-1.861,1.116a12.837,12.837,0,0,0-4.838,5.21l-.93,1.861-1.116-1.861a12.838,12.838,0,0,0-5.21-4.838L292,140.873l1.861-1.116a12.838,12.838,0,0,0,4.838-5.21Z" transform="translate(251.357 114.277)" fill="#0575ff"/>
            <path id="Path_181" data-name="Path 181" d="M269.428,316.1l1.116,1.861a12.838,12.838,0,0,0,5.21,4.837l2.047.93-1.861,1.116a12.839,12.839,0,0,0-4.838,5.21l-.93,1.861-1.116-1.861a12.838,12.838,0,0,0-5.21-4.838l-2.047-.93,1.861-1.116a12.838,12.838,0,0,0,4.837-5.21Z" transform="translate(225.367 272.282)" fill="#0575ff"/>
            <path id="Path_182" data-name="Path 182" d="M271.686,354.7h2.977v.558a3.349,3.349,0,0,0-.186,1.861v.558H271.5v-.558a3.349,3.349,0,0,0,.186-1.861Z" transform="translate(233.715 305.501)" fill="#0575ff"/>
            <path id="Path_183" data-name="Path 183" d="M289.186,93.8h2.977v.558a3.35,3.35,0,0,0-.186,1.861v.558H289v-.558a3.348,3.348,0,0,0,.186-1.861Z" transform="translate(248.775 80.972)" fill="#0575ff"/>
            <path id="Path_184" data-name="Path 184" d="M50.886,70h2.977v.558a3.349,3.349,0,0,0-.186,1.861v.558H50.7v-.558a3.349,3.349,0,0,0,.186-1.861Z" transform="translate(43.695 60.49)" fill="#0575ff"/>
            <path id="Path_185" data-name="Path 185" d="M80.286,273.2h2.977v.558a3.349,3.349,0,0,0-.186,1.861v.558H80.1v-.558a3.349,3.349,0,0,0,.186-1.861Z" transform="translate(68.997 235.363)" fill="#0575ff"/>
            <path id="Path_186" data-name="Path 186" d="M163.65,351.7l-.558.558-1.488,1.488-5.954,5.768L133.322,381.1h0l4.279,90.239v.744l-.744-.372-8-5.4L77.69,432.078H77.5l-18.42-55.632-5.21-15.815-1.3-4.093-.372-1.116h0l.372,1.116,1.488,4.093,5.4,15.629,18.792,55.446h-.186l51.166,34.049,8,5.4-.558.372L132.764,381.1h0l22.513-21.4,6.14-5.768,1.675-1.488.558-.558" transform="translate(44.986 302.92)" fill="#0575ff"/>
            <path id="Path_187" data-name="Path 187" d="M104.291,410.2v5.4l4.093,3.163-5.024,1.3-1.675,5.024-2.977-4.279H93.5l3.163-4.279L95.175,411.5l4.838,1.861Z" transform="translate(80.529 353.264)" fill="#0575ff"/>
            <path id="Path_188" data-name="Path 188" d="M69.4,391v3.535l2.977,1.861-3.163,1.116-.93,3.349-2.047-2.791-3.535.186,2.047-2.791-1.3-3.163,3.349.93Z" transform="translate(54.022 336.741)" fill="#0575ff"/>
            <path id="Path_189" data-name="Path 189" d="M54.238,350.1l2.6,3.349,4.279-.372L58.7,356.612l1.488,3.907L56.284,359.4l-3.349,2.6v-4.093L49.4,355.5l3.907-1.3Z" transform="translate(42.576 301.543)" fill="#0575ff"/>
            <path id="Path_190" data-name="Path 190" d="M112.938,348.3l2.6,3.349,4.279-.186-2.419,3.349,1.488,3.907-3.907-1.116-3.349,2.6v-4.093l-3.535-2.233,3.907-1.488Z" transform="translate(93.093 299.993)" fill="#0575ff"/>
            <path id="Path_191" data-name="Path 191" d="M96.763,365.5l1.675,2.047,2.6-.186-1.488,2.233,1.116,2.6-2.6-.744-2.047,1.675-.186-2.791-2.233-1.3,2.6-.93Z" transform="translate(80.615 314.796)" fill="#0575ff"/>
            <path id="Path_192" data-name="Path 192" d="M96.652,287.026a37.119,37.119,0,1,0-.186,0" transform="translate(19.512 215.397)" fill="#0575ff"/>
            <g id="Group_100" data-name="Group 100" transform="translate(62.021 508.004)" opacity="0.3">
              <g id="Group_99" data-name="Group 99" clip-path="url(#clip-path-17)">
                <path id="Path_193" data-name="Path 193" d="M45.48,278.94a6.14,6.14,0,1,1-6.14-6.14,6.14,6.14,0,0,1,6.14,6.14" transform="translate(-33.386 -272.986)" fill="#fff"/>
              </g>
            </g>
            <g id="Group_102" data-name="Group 102" transform="translate(58.486 492.934)" opacity="0.3">
              <g id="Group_101" data-name="Group 101" clip-path="url(#clip-path-18)">
                <path id="Path_194" data-name="Path 194" d="M38.47,268.335a3.535,3.535,0,1,1-3.535-3.535,3.535,3.535,0,0,1,3.535,3.535" transform="translate(-31.4 -264.8)" fill="#fff"/>
              </g>
            </g>
            <path id="Path_195" data-name="Path 195" d="M34.59,301.773c.186.558-31.816,31.258-23.444,37.77S53.94,329.31,83.523,305.494s56.562-52.841,49.12-60.469S88.361,260.1,88.361,260.1l4.465,2.791s22.327-14.327,29.4-8.745-13.024,27.165-41.491,48-55.818,35.165-60.1,29.583,15.629-24.746,15.629-24.746Z" transform="translate(8.453 209.767)" fill="#004b7c"/>
            <g id="Group_106" data-name="Group 106" transform="translate(44.531 476.188)" opacity="0.3">
              <g id="Group_105" data-name="Group 105" clip-path="url(#clip-path-19)">
                <path id="Path_197" data-name="Path 197" d="M37.813,255.9c.372.372-2.233,2.419-5.024,6.7a34.235,34.235,0,0,0-.744,37.584c2.6,4.465,5.024,6.7,4.838,6.884s-3.163-1.488-6.512-5.768a32.194,32.194,0,0,1,.744-39.631c3.535-4.279,6.512-5.768,6.7-5.582" transform="translate(-23.858 -255.714)" fill="#fff"/>
              </g>
            </g>
            <path id="Path_198" data-name="Path 198" d="M245.7,96.638A30.7,30.7,0,1,1,275.658,127.9,30.7,30.7,0,0,1,245.7,96.638" transform="translate(211.509 57.481)" fill="#3690ff"/>
            <g id="Group_108" data-name="Group 108" transform="translate(497.772 138.304)" opacity="0.4">
              <g id="Group_107" data-name="Group 107" clip-path="url(#clip-path-20)">
                <path id="Path_199" data-name="Path 199" d="M267.5,79.122a5.024,5.024,0,1,1,4.838,5.024,5.024,5.024,0,0,1-4.838-5.024" transform="translate(-267.5 -74.285)" fill="#003980"/>
              </g>
            </g>
            <g id="Group_110" data-name="Group 110" transform="translate(507.82 151.886)" opacity="0.4">
              <g id="Group_109" data-name="Group 109" clip-path="url(#clip-path-21)">
                <path id="Path_200" data-name="Path 200" d="M272.9,84.474a2.977,2.977,0,1,1,2.791,2.977,2.977,2.977,0,0,1-2.791-2.977" transform="translate(-272.9 -81.497)" fill="#024ca7"/>
              </g>
            </g>
            <g id="Group_112" data-name="Group 112" transform="translate(502.796 163.608)" opacity="0.4">
              <g id="Group_111" data-name="Group 111" clip-path="url(#clip-path-22)">
                <path id="Path_201" data-name="Path 201" d="M271.316,87.8a1.116,1.116,0,1,1-1.116,1.116,1.116,1.116,0,0,1,1.116-1.116" transform="translate(-270.2 -87.8)" fill="#04346f"/>
              </g>
            </g>
          </g>
        </g>
      </g>
    </g>
  </g>
</svg>
